<svg xmlns="http://www.w3.org/2000/svg" version="1.1" xmlns:xlink="http://www.w3.org/1999/xlink" viewBox="0 0 200 200"><rect width="200" height="200" fill="url('#gradient')"></rect><defs><linearGradient id="gradient" gradientTransform="rotate(137 0.5 0.5)"><stop offset="0%" stop-color="#0f0f0f"></stop><stop offset="100%" stop-color="#0c0bef"></stop></linearGradient></defs><g><g fill="#58f10b" transform="matrix(5.6791309319611205,0,0,5.6791309319611205,-4.437889089033632,140.38287713229144)" stroke="#000000" stroke-width="0.7"><path d="M4.73-14.22L4.73 0L1.31 0L1.31-14.22L4.73-14.22ZM8.99-3.19L8.99-3.19Q9.78-3.19 10.29-2.73Q10.81-2.27 10.81-1.54Q10.81-0.82 10.29-0.36Q9.78 0.11 8.99 0.11L8.99 0.11Q8.20 0.11 7.69-0.36Q7.18-0.83 7.18-1.54Q7.18-2.26 7.69-2.72Q8.20-3.19 8.99-3.19ZM29.78-7.60L29.78-1.76Q28.98-0.88 27.46-0.34Q25.94 0.20 24.12 0.20L24.12 0.20Q21.33 0.20 19.66-1.51Q17.99-3.22 17.87-6.27L17.87-6.27L17.86-7.50Q17.86-9.60 18.60-11.17Q19.35-12.73 20.73-13.58Q22.11-14.42 23.93-14.42L23.93-14.42Q26.58-14.42 28.05-13.21Q29.52-11.99 29.77-9.58L29.77-9.58L26.46-9.58Q26.29-10.77 25.70-11.28Q25.12-11.79 24.04-11.79L24.04-11.79Q22.75-11.79 22.05-10.69Q21.35-9.60 21.34-7.57L21.34-7.57L21.34-6.71Q21.34-4.58 22.07-3.51Q22.79-2.44 24.36-2.44L24.36-2.44Q25.69-2.44 26.35-3.04L26.35-3.04L26.35-5.24L23.96-5.24L23.96-7.60L29.78-7.60ZM33.65-3.19L33.65-3.19Q34.43-3.19 34.95-2.73Q35.47-2.27 35.47-1.54Q35.47-0.82 34.95-0.36Q34.43 0.11 33.65 0.11L33.65 0.11Q32.86 0.11 32.35-0.36Q31.84-0.83 31.84-1.54Q31.84-2.26 32.35-2.72Q32.86-3.19 33.65-3.19Z"></path></g></g></svg>